<mxfile host="app.diagrams.net" modified="2024-07-04T16:05:19.231Z" agent="Mozilla/5.0 (Macintosh; Intel Mac OS X 10_15_7) AppleWebKit/605.1.15 (KHTML, like Gecko) Version/17.5 Safari/605.1.15" etag="xhU_8Zkv2xVkt8K4i2JA" version="24.6.4" type="device">
  <diagram id="C5RBs43oDa-KdzZeNtuy" name="Page-1">
    <mxGraphModel dx="2074" dy="802" grid="1" gridSize="10" guides="1" tooltips="1" connect="1" arrows="1" fold="1" page="1" pageScale="1" pageWidth="827" pageHeight="1169" math="0" shadow="0">
      <root>
        <mxCell id="WIyWlLk6GJQsqaUBKTNV-0" />
        <mxCell id="WIyWlLk6GJQsqaUBKTNV-1" parent="WIyWlLk6GJQsqaUBKTNV-0" />
        <mxCell id="20fMWqvZLDc1XGUT310H-5" style="edgeStyle=orthogonalEdgeStyle;rounded=0;orthogonalLoop=1;jettySize=auto;html=1;exitX=0.5;exitY=1;exitDx=0;exitDy=0;entryX=0.5;entryY=0;entryDx=0;entryDy=0;" edge="1" parent="WIyWlLk6GJQsqaUBKTNV-1" source="20fMWqvZLDc1XGUT310H-0" target="20fMWqvZLDc1XGUT310H-1">
          <mxGeometry relative="1" as="geometry" />
        </mxCell>
        <mxCell id="20fMWqvZLDc1XGUT310H-0" value="" style="ellipse;whiteSpace=wrap;html=1;aspect=fixed;fillColor=#000000;" vertex="1" parent="WIyWlLk6GJQsqaUBKTNV-1">
          <mxGeometry x="400" y="40" width="40" height="40" as="geometry" />
        </mxCell>
        <mxCell id="20fMWqvZLDc1XGUT310H-4" style="edgeStyle=orthogonalEdgeStyle;rounded=0;orthogonalLoop=1;jettySize=auto;html=1;exitX=0.5;exitY=1;exitDx=0;exitDy=0;entryX=0.5;entryY=0;entryDx=0;entryDy=0;" edge="1" parent="WIyWlLk6GJQsqaUBKTNV-1" source="20fMWqvZLDc1XGUT310H-1" target="20fMWqvZLDc1XGUT310H-3">
          <mxGeometry relative="1" as="geometry" />
        </mxCell>
        <mxCell id="20fMWqvZLDc1XGUT310H-1" value="Registration ( Create User )" style="rounded=1;whiteSpace=wrap;html=1;" vertex="1" parent="WIyWlLk6GJQsqaUBKTNV-1">
          <mxGeometry x="360" y="120" width="120" height="30" as="geometry" />
        </mxCell>
        <mxCell id="20fMWqvZLDc1XGUT310H-8" style="edgeStyle=orthogonalEdgeStyle;rounded=0;orthogonalLoop=1;jettySize=auto;html=1;exitX=0;exitY=0.5;exitDx=0;exitDy=0;entryX=0.5;entryY=0;entryDx=0;entryDy=0;" edge="1" parent="WIyWlLk6GJQsqaUBKTNV-1" source="20fMWqvZLDc1XGUT310H-3" target="20fMWqvZLDc1XGUT310H-6">
          <mxGeometry relative="1" as="geometry" />
        </mxCell>
        <mxCell id="20fMWqvZLDc1XGUT310H-10" value="YES" style="edgeLabel;html=1;align=center;verticalAlign=middle;resizable=0;points=[];" vertex="1" connectable="0" parent="20fMWqvZLDc1XGUT310H-8">
          <mxGeometry x="0.2" y="2" relative="1" as="geometry">
            <mxPoint as="offset" />
          </mxGeometry>
        </mxCell>
        <mxCell id="20fMWqvZLDc1XGUT310H-9" style="edgeStyle=orthogonalEdgeStyle;rounded=0;orthogonalLoop=1;jettySize=auto;html=1;exitX=1;exitY=0.5;exitDx=0;exitDy=0;entryX=0.5;entryY=0;entryDx=0;entryDy=0;" edge="1" parent="WIyWlLk6GJQsqaUBKTNV-1" source="20fMWqvZLDc1XGUT310H-3" target="20fMWqvZLDc1XGUT310H-7">
          <mxGeometry relative="1" as="geometry" />
        </mxCell>
        <mxCell id="20fMWqvZLDc1XGUT310H-11" value="NO" style="edgeLabel;html=1;align=center;verticalAlign=middle;resizable=0;points=[];" vertex="1" connectable="0" parent="20fMWqvZLDc1XGUT310H-9">
          <mxGeometry x="0.2133" y="3" relative="1" as="geometry">
            <mxPoint as="offset" />
          </mxGeometry>
        </mxCell>
        <mxCell id="20fMWqvZLDc1XGUT310H-3" value="User Created ?" style="rhombus;whiteSpace=wrap;html=1;" vertex="1" parent="WIyWlLk6GJQsqaUBKTNV-1">
          <mxGeometry x="370" y="190" width="100" height="100" as="geometry" />
        </mxCell>
        <mxCell id="20fMWqvZLDc1XGUT310H-13" style="edgeStyle=orthogonalEdgeStyle;rounded=0;orthogonalLoop=1;jettySize=auto;html=1;exitX=0.5;exitY=1;exitDx=0;exitDy=0;entryX=0.5;entryY=0;entryDx=0;entryDy=0;" edge="1" parent="WIyWlLk6GJQsqaUBKTNV-1" source="20fMWqvZLDc1XGUT310H-6" target="20fMWqvZLDc1XGUT310H-12">
          <mxGeometry relative="1" as="geometry" />
        </mxCell>
        <mxCell id="20fMWqvZLDc1XGUT310H-6" value="Read User" style="rounded=1;whiteSpace=wrap;html=1;" vertex="1" parent="WIyWlLk6GJQsqaUBKTNV-1">
          <mxGeometry x="250" y="320" width="120" height="30" as="geometry" />
        </mxCell>
        <mxCell id="20fMWqvZLDc1XGUT310H-51" style="edgeStyle=orthogonalEdgeStyle;rounded=0;orthogonalLoop=1;jettySize=auto;html=1;exitX=1;exitY=0.5;exitDx=0;exitDy=0;entryX=0.5;entryY=0;entryDx=0;entryDy=0;" edge="1" parent="WIyWlLk6GJQsqaUBKTNV-1" source="20fMWqvZLDc1XGUT310H-7" target="20fMWqvZLDc1XGUT310H-41">
          <mxGeometry relative="1" as="geometry" />
        </mxCell>
        <mxCell id="20fMWqvZLDc1XGUT310H-7" value="Error Handling" style="rounded=1;whiteSpace=wrap;html=1;" vertex="1" parent="WIyWlLk6GJQsqaUBKTNV-1">
          <mxGeometry x="480" y="320" width="120" height="30" as="geometry" />
        </mxCell>
        <mxCell id="20fMWqvZLDc1XGUT310H-15" style="edgeStyle=orthogonalEdgeStyle;rounded=0;orthogonalLoop=1;jettySize=auto;html=1;exitX=0;exitY=0.5;exitDx=0;exitDy=0;" edge="1" parent="WIyWlLk6GJQsqaUBKTNV-1" source="20fMWqvZLDc1XGUT310H-12">
          <mxGeometry relative="1" as="geometry">
            <mxPoint x="240" y="560" as="targetPoint" />
          </mxGeometry>
        </mxCell>
        <mxCell id="20fMWqvZLDc1XGUT310H-19" value="YES" style="edgeLabel;html=1;align=center;verticalAlign=middle;resizable=0;points=[];" vertex="1" connectable="0" parent="20fMWqvZLDc1XGUT310H-15">
          <mxGeometry x="-0.0605" y="3" relative="1" as="geometry">
            <mxPoint as="offset" />
          </mxGeometry>
        </mxCell>
        <mxCell id="20fMWqvZLDc1XGUT310H-16" style="edgeStyle=orthogonalEdgeStyle;rounded=0;orthogonalLoop=1;jettySize=auto;html=1;exitX=0.5;exitY=1;exitDx=0;exitDy=0;" edge="1" parent="WIyWlLk6GJQsqaUBKTNV-1" source="20fMWqvZLDc1XGUT310H-12">
          <mxGeometry relative="1" as="geometry">
            <mxPoint x="440" y="560" as="targetPoint" />
          </mxGeometry>
        </mxCell>
        <mxCell id="20fMWqvZLDc1XGUT310H-20" value="YES" style="edgeLabel;html=1;align=center;verticalAlign=middle;resizable=0;points=[];" vertex="1" connectable="0" parent="20fMWqvZLDc1XGUT310H-16">
          <mxGeometry x="-0.2419" y="-3" relative="1" as="geometry">
            <mxPoint as="offset" />
          </mxGeometry>
        </mxCell>
        <mxCell id="20fMWqvZLDc1XGUT310H-39" style="edgeStyle=orthogonalEdgeStyle;rounded=0;orthogonalLoop=1;jettySize=auto;html=1;exitX=1;exitY=0.5;exitDx=0;exitDy=0;entryX=0;entryY=0.5;entryDx=0;entryDy=0;" edge="1" parent="WIyWlLk6GJQsqaUBKTNV-1" source="20fMWqvZLDc1XGUT310H-12" target="20fMWqvZLDc1XGUT310H-38">
          <mxGeometry relative="1" as="geometry" />
        </mxCell>
        <mxCell id="20fMWqvZLDc1XGUT310H-40" value="NO" style="edgeLabel;html=1;align=center;verticalAlign=middle;resizable=0;points=[];" vertex="1" connectable="0" parent="20fMWqvZLDc1XGUT310H-39">
          <mxGeometry x="-0.25" y="4" relative="1" as="geometry">
            <mxPoint as="offset" />
          </mxGeometry>
        </mxCell>
        <mxCell id="20fMWqvZLDc1XGUT310H-12" value="Data Fetched ?" style="rhombus;whiteSpace=wrap;html=1;" vertex="1" parent="WIyWlLk6GJQsqaUBKTNV-1">
          <mxGeometry x="260" y="390" width="100" height="100" as="geometry" />
        </mxCell>
        <mxCell id="20fMWqvZLDc1XGUT310H-23" style="edgeStyle=orthogonalEdgeStyle;rounded=0;orthogonalLoop=1;jettySize=auto;html=1;exitX=0.5;exitY=1;exitDx=0;exitDy=0;entryX=0.5;entryY=0;entryDx=0;entryDy=0;" edge="1" parent="WIyWlLk6GJQsqaUBKTNV-1" source="20fMWqvZLDc1XGUT310H-17" target="20fMWqvZLDc1XGUT310H-21">
          <mxGeometry relative="1" as="geometry" />
        </mxCell>
        <mxCell id="20fMWqvZLDc1XGUT310H-17" value="Update User" style="rounded=1;whiteSpace=wrap;html=1;" vertex="1" parent="WIyWlLk6GJQsqaUBKTNV-1">
          <mxGeometry x="180" y="560" width="120" height="30" as="geometry" />
        </mxCell>
        <mxCell id="20fMWqvZLDc1XGUT310H-24" style="edgeStyle=orthogonalEdgeStyle;rounded=0;orthogonalLoop=1;jettySize=auto;html=1;exitX=0.5;exitY=1;exitDx=0;exitDy=0;entryX=0.5;entryY=0;entryDx=0;entryDy=0;" edge="1" parent="WIyWlLk6GJQsqaUBKTNV-1" source="20fMWqvZLDc1XGUT310H-18" target="20fMWqvZLDc1XGUT310H-22">
          <mxGeometry relative="1" as="geometry" />
        </mxCell>
        <mxCell id="20fMWqvZLDc1XGUT310H-18" value="Delete User" style="rounded=1;whiteSpace=wrap;html=1;" vertex="1" parent="WIyWlLk6GJQsqaUBKTNV-1">
          <mxGeometry x="380" y="560" width="120" height="30" as="geometry" />
        </mxCell>
        <mxCell id="20fMWqvZLDc1XGUT310H-27" style="edgeStyle=orthogonalEdgeStyle;rounded=0;orthogonalLoop=1;jettySize=auto;html=1;exitX=0;exitY=0.5;exitDx=0;exitDy=0;entryX=0.5;entryY=0;entryDx=0;entryDy=0;" edge="1" parent="WIyWlLk6GJQsqaUBKTNV-1" source="20fMWqvZLDc1XGUT310H-21" target="20fMWqvZLDc1XGUT310H-25">
          <mxGeometry relative="1" as="geometry" />
        </mxCell>
        <mxCell id="20fMWqvZLDc1XGUT310H-35" value="YES" style="edgeLabel;html=1;align=center;verticalAlign=middle;resizable=0;points=[];" vertex="1" connectable="0" parent="20fMWqvZLDc1XGUT310H-27">
          <mxGeometry x="-0.14" y="2" relative="1" as="geometry">
            <mxPoint as="offset" />
          </mxGeometry>
        </mxCell>
        <mxCell id="20fMWqvZLDc1XGUT310H-31" style="edgeStyle=orthogonalEdgeStyle;rounded=0;orthogonalLoop=1;jettySize=auto;html=1;exitX=1;exitY=0.5;exitDx=0;exitDy=0;entryX=0.5;entryY=0;entryDx=0;entryDy=0;" edge="1" parent="WIyWlLk6GJQsqaUBKTNV-1" source="20fMWqvZLDc1XGUT310H-21" target="20fMWqvZLDc1XGUT310H-30">
          <mxGeometry relative="1" as="geometry" />
        </mxCell>
        <mxCell id="20fMWqvZLDc1XGUT310H-33" value="NO" style="edgeLabel;html=1;align=center;verticalAlign=middle;resizable=0;points=[];" vertex="1" connectable="0" parent="20fMWqvZLDc1XGUT310H-31">
          <mxGeometry x="-0.6923" relative="1" as="geometry">
            <mxPoint as="offset" />
          </mxGeometry>
        </mxCell>
        <mxCell id="20fMWqvZLDc1XGUT310H-21" value="Updated ?" style="rhombus;whiteSpace=wrap;html=1;" vertex="1" parent="WIyWlLk6GJQsqaUBKTNV-1">
          <mxGeometry x="190" y="640" width="100" height="100" as="geometry" />
        </mxCell>
        <mxCell id="20fMWqvZLDc1XGUT310H-29" style="edgeStyle=orthogonalEdgeStyle;rounded=0;orthogonalLoop=1;jettySize=auto;html=1;exitX=1;exitY=0.5;exitDx=0;exitDy=0;entryX=0.5;entryY=0;entryDx=0;entryDy=0;" edge="1" parent="WIyWlLk6GJQsqaUBKTNV-1" source="20fMWqvZLDc1XGUT310H-22" target="20fMWqvZLDc1XGUT310H-26">
          <mxGeometry relative="1" as="geometry" />
        </mxCell>
        <mxCell id="20fMWqvZLDc1XGUT310H-36" value="YES" style="edgeLabel;html=1;align=center;verticalAlign=middle;resizable=0;points=[];" vertex="1" connectable="0" parent="20fMWqvZLDc1XGUT310H-29">
          <mxGeometry x="0.1571" relative="1" as="geometry">
            <mxPoint as="offset" />
          </mxGeometry>
        </mxCell>
        <mxCell id="20fMWqvZLDc1XGUT310H-32" style="edgeStyle=orthogonalEdgeStyle;rounded=0;orthogonalLoop=1;jettySize=auto;html=1;exitX=0;exitY=0.5;exitDx=0;exitDy=0;" edge="1" parent="WIyWlLk6GJQsqaUBKTNV-1" source="20fMWqvZLDc1XGUT310H-22">
          <mxGeometry relative="1" as="geometry">
            <mxPoint x="340" y="770" as="targetPoint" />
          </mxGeometry>
        </mxCell>
        <mxCell id="20fMWqvZLDc1XGUT310H-34" value="NO" style="edgeLabel;html=1;align=center;verticalAlign=middle;resizable=0;points=[];" vertex="1" connectable="0" parent="20fMWqvZLDc1XGUT310H-32">
          <mxGeometry x="-0.5985" y="-2" relative="1" as="geometry">
            <mxPoint as="offset" />
          </mxGeometry>
        </mxCell>
        <mxCell id="20fMWqvZLDc1XGUT310H-22" value="Deleted ?" style="rhombus;whiteSpace=wrap;html=1;" vertex="1" parent="WIyWlLk6GJQsqaUBKTNV-1">
          <mxGeometry x="390" y="640" width="100" height="100" as="geometry" />
        </mxCell>
        <mxCell id="20fMWqvZLDc1XGUT310H-44" style="edgeStyle=orthogonalEdgeStyle;rounded=0;orthogonalLoop=1;jettySize=auto;html=1;exitX=0.5;exitY=1;exitDx=0;exitDy=0;entryX=0;entryY=0.5;entryDx=0;entryDy=0;" edge="1" parent="WIyWlLk6GJQsqaUBKTNV-1" source="20fMWqvZLDc1XGUT310H-25" target="20fMWqvZLDc1XGUT310H-42">
          <mxGeometry relative="1" as="geometry" />
        </mxCell>
        <mxCell id="20fMWqvZLDc1XGUT310H-25" value="Update User" style="rounded=1;whiteSpace=wrap;html=1;" vertex="1" parent="WIyWlLk6GJQsqaUBKTNV-1">
          <mxGeometry x="110" y="770" width="120" height="30" as="geometry" />
        </mxCell>
        <mxCell id="20fMWqvZLDc1XGUT310H-45" style="edgeStyle=orthogonalEdgeStyle;rounded=0;orthogonalLoop=1;jettySize=auto;html=1;exitX=0.5;exitY=1;exitDx=0;exitDy=0;entryX=1;entryY=0.5;entryDx=0;entryDy=0;" edge="1" parent="WIyWlLk6GJQsqaUBKTNV-1" source="20fMWqvZLDc1XGUT310H-26" target="20fMWqvZLDc1XGUT310H-42">
          <mxGeometry relative="1" as="geometry" />
        </mxCell>
        <mxCell id="20fMWqvZLDc1XGUT310H-26" value="Update User" style="rounded=1;whiteSpace=wrap;html=1;" vertex="1" parent="WIyWlLk6GJQsqaUBKTNV-1">
          <mxGeometry x="490" y="770" width="120" height="30" as="geometry" />
        </mxCell>
        <mxCell id="20fMWqvZLDc1XGUT310H-47" style="edgeStyle=orthogonalEdgeStyle;rounded=0;orthogonalLoop=1;jettySize=auto;html=1;exitX=0.5;exitY=1;exitDx=0;exitDy=0;entryX=0.5;entryY=0;entryDx=0;entryDy=0;" edge="1" parent="WIyWlLk6GJQsqaUBKTNV-1" source="20fMWqvZLDc1XGUT310H-30" target="20fMWqvZLDc1XGUT310H-41">
          <mxGeometry relative="1" as="geometry" />
        </mxCell>
        <mxCell id="20fMWqvZLDc1XGUT310H-30" value="Error Handling" style="rounded=1;whiteSpace=wrap;html=1;" vertex="1" parent="WIyWlLk6GJQsqaUBKTNV-1">
          <mxGeometry x="280" y="770" width="120" height="30" as="geometry" />
        </mxCell>
        <mxCell id="20fMWqvZLDc1XGUT310H-50" style="edgeStyle=orthogonalEdgeStyle;rounded=0;orthogonalLoop=1;jettySize=auto;html=1;exitX=1;exitY=0.5;exitDx=0;exitDy=0;entryX=0.5;entryY=0;entryDx=0;entryDy=0;" edge="1" parent="WIyWlLk6GJQsqaUBKTNV-1" source="20fMWqvZLDc1XGUT310H-38" target="20fMWqvZLDc1XGUT310H-41">
          <mxGeometry relative="1" as="geometry" />
        </mxCell>
        <mxCell id="20fMWqvZLDc1XGUT310H-38" value="Error Handling" style="rounded=1;whiteSpace=wrap;html=1;" vertex="1" parent="WIyWlLk6GJQsqaUBKTNV-1">
          <mxGeometry x="400" y="425" width="120" height="30" as="geometry" />
        </mxCell>
        <mxCell id="20fMWqvZLDc1XGUT310H-48" style="edgeStyle=orthogonalEdgeStyle;rounded=0;orthogonalLoop=1;jettySize=auto;html=1;exitX=0.5;exitY=1;exitDx=0;exitDy=0;entryX=0.5;entryY=0;entryDx=0;entryDy=0;" edge="1" parent="WIyWlLk6GJQsqaUBKTNV-1" source="20fMWqvZLDc1XGUT310H-41" target="20fMWqvZLDc1XGUT310H-43">
          <mxGeometry relative="1" as="geometry" />
        </mxCell>
        <mxCell id="20fMWqvZLDc1XGUT310H-41" value="Show Error Message to User" style="rounded=1;whiteSpace=wrap;html=1;" vertex="1" parent="WIyWlLk6GJQsqaUBKTNV-1">
          <mxGeometry x="600" y="860" width="120" height="30" as="geometry" />
        </mxCell>
        <mxCell id="20fMWqvZLDc1XGUT310H-46" style="edgeStyle=orthogonalEdgeStyle;rounded=0;orthogonalLoop=1;jettySize=auto;html=1;exitX=0.5;exitY=1;exitDx=0;exitDy=0;entryX=0.5;entryY=0;entryDx=0;entryDy=0;" edge="1" parent="WIyWlLk6GJQsqaUBKTNV-1" source="20fMWqvZLDc1XGUT310H-42" target="20fMWqvZLDc1XGUT310H-43">
          <mxGeometry relative="1" as="geometry" />
        </mxCell>
        <mxCell id="20fMWqvZLDc1XGUT310H-42" value="Show Success Message to User" style="rounded=1;whiteSpace=wrap;html=1;" vertex="1" parent="WIyWlLk6GJQsqaUBKTNV-1">
          <mxGeometry x="210" y="860" width="120" height="30" as="geometry" />
        </mxCell>
        <mxCell id="20fMWqvZLDc1XGUT310H-43" value="" style="ellipse;whiteSpace=wrap;html=1;aspect=fixed;fillColor=#000000;" vertex="1" parent="WIyWlLk6GJQsqaUBKTNV-1">
          <mxGeometry x="400" y="950" width="40" height="40" as="geometry" />
        </mxCell>
      </root>
    </mxGraphModel>
  </diagram>
</mxfile>
